<svg width="205" height="30" viewBox="0 0 205 30" fill="none" xmlns="http://www.w3.org/2000/svg">
<path d="M3.23994 6.47998L14.5422 6.47998C16.3316 6.47998 17.7822 5.02937 17.7822 3.23995C17.7822 1.45053 16.3316 -8.72612e-05 14.5422 -8.72612e-05L3.23994 -8.72612e-05C1.45052 -8.72612e-05 -8.7738e-05 1.45053 -8.7738e-05 3.23995C-8.7738e-05 5.02937 1.45052 6.47998 3.23994 6.47998Z" fill="#023047"/>
<path d="M22.446 6.47998L25.9974 6.47998C27.7822 6.47998 29.229 5.03314 29.229 3.24836V3.23153C29.229 1.44676 27.7822 -8.72612e-05 25.9974 -8.72612e-05L22.446 -8.72612e-05C20.6612 -8.72612e-05 19.2144 1.44676 19.2144 3.23153V3.24836C19.2144 5.03314 20.6612 6.47998 22.446 6.47998Z" fill="#94EE59"/>
<path d="M3.23299 17.8545L25.9974 17.8545C27.7822 17.8545 29.229 16.4076 29.229 14.6229V14.606C29.229 12.8213 27.7822 11.3744 25.9974 11.3744L3.23299 11.3744C1.44822 11.3744 0.00137329 12.8213 0.00137329 14.606V14.6229C0.00137329 16.4076 1.44822 17.8545 3.23299 17.8545Z" fill="#023047"/>
<path d="M25.9898 22.7524H14.6875C12.8981 22.7524 11.4475 24.2031 11.4475 25.9925C11.4475 27.7819 12.8981 29.2325 14.6875 29.2325H25.9898C27.7792 29.2325 29.2298 27.7819 29.2298 25.9925C29.2298 24.2031 27.7792 22.7524 25.9898 22.7524Z" fill="#023047"/>
<path d="M6.78401 22.7524H3.23259C1.44782 22.7524 0.000976562 24.1993 0.000976562 25.9841V26.0009C0.000976562 27.7857 1.44782 29.2325 3.23259 29.2325H6.78401C8.56878 29.2325 10.0156 27.7857 10.0156 26.0009V25.9841C10.0156 24.1993 8.56878 22.7524 6.78401 22.7524Z" fill="#94EE59"/>
<path d="M41.7898 28.3972V1.16406H45.9682V24.892H58.314V28.4014H41.794L41.7898 28.3972Z" fill="#023047"/>
<path d="M68.8756 28.8141C67.0788 28.8141 65.4209 28.4439 63.8977 27.6991C62.3745 26.9585 61.1458 25.8308 60.2074 24.3244C59.2691 22.8138 58.802 20.9034 58.802 18.5891V17.8359C58.802 15.6226 59.2522 13.788 60.1485 12.3278C61.0448 10.8677 62.2314 9.7821 63.6999 9.06256C65.1685 8.34723 66.7632 7.98535 68.48 7.98535C71.577 7.98535 73.9628 8.80167 75.6418 10.4385C77.3207 12.0754 78.158 14.3855 78.158 17.3815V19.4938H62.7405C62.7658 20.9287 63.0772 22.0858 63.6789 22.9653C64.2764 23.8447 65.0464 24.4801 65.9806 24.8714C66.9189 25.2627 67.8783 25.4563 68.8671 25.4563C70.3778 25.4563 71.5139 25.2164 72.2839 24.741C73.0497 24.2655 73.5925 23.6217 73.9039 22.818H77.7667C77.3501 24.7788 76.3276 26.2684 74.7034 27.2867C73.075 28.305 71.131 28.8141 68.8671 28.8141H68.8756ZM68.682 11.3474C67.6679 11.3474 66.7127 11.5241 65.8123 11.8734C64.916 12.2269 64.1838 12.7865 63.6284 13.5523C63.0687 14.3181 62.7742 15.3196 62.749 16.5525H74.3794C74.3542 15.2439 74.0807 14.2129 73.5589 13.4597C73.0371 12.7065 72.3554 12.1637 71.5097 11.8355C70.6639 11.5073 69.7213 11.3432 68.6778 11.3432L68.682 11.3474Z" fill="#023047"/>
<path d="M77.5105 28.3968L85.1225 18.096L77.9018 8.40112H82.3495L87.5798 15.3819L92.7723 8.40112H97.0643L89.8815 17.9445L97.4556 28.3968H92.928L87.4242 20.6249L81.8824 28.3968H77.5105Z" fill="#023047"/>
<path d="M110.101 28.8133C107.942 28.8133 105.977 28.3462 104.205 27.4163C102.434 26.4864 101.016 25.0347 99.9513 23.057C98.8825 21.0835 98.3523 18.5251 98.3523 15.3777V14.6245C98.3523 12.3354 98.6637 10.3746 99.2906 8.73772C99.9134 7.10508 100.768 5.75857 101.849 4.70241C102.93 3.64624 104.176 2.85938 105.598 2.34602C107.016 1.83266 108.518 1.57178 110.105 1.57178C111.59 1.57178 112.966 1.76113 114.241 2.13984C115.516 2.51854 116.635 3.06556 117.599 3.78089C118.563 4.49622 119.337 5.38408 119.922 6.44024C120.507 7.49641 120.877 8.71668 121.033 10.1011H116.585C116.248 8.43897 115.503 7.21028 114.359 6.40237C113.214 5.59868 111.796 5.19472 110.105 5.19472C108.88 5.19472 107.711 5.48927 106.591 6.08258C105.472 6.67168 104.563 7.66052 103.86 9.04489C103.158 10.4293 102.808 12.2891 102.808 14.6287V15.3819C102.808 17.2418 103.023 18.8029 103.452 20.061C103.881 21.3192 104.462 22.3248 105.19 23.078C105.918 23.8312 106.713 24.374 107.572 24.7023C108.43 25.0305 109.276 25.1946 110.109 25.1946C112.036 25.1946 113.543 24.7485 114.637 23.8565C115.731 22.9644 116.379 21.7736 116.589 20.2924H121.037C120.856 21.8031 120.452 23.0991 119.825 24.1763C119.202 25.2577 118.398 26.1371 117.422 26.8188C116.446 27.5005 115.339 28.0012 114.106 28.3294C112.869 28.6576 111.535 28.8217 110.105 28.8217L110.101 28.8133Z" fill="#023047"/>
<path d="M123.728 28.3972V1.16406H127.59V11.7594C127.927 11.0819 128.398 10.4592 128.996 9.89111C129.593 9.32306 130.33 8.86861 131.201 8.51515C132.072 8.16169 133.082 7.98917 134.226 7.98917C136.776 7.98917 138.691 8.65401 139.966 9.98789C141.241 11.3218 141.88 13.27 141.88 15.8368V28.4014H138.017V16.7078C138.017 14.9489 137.634 13.615 136.864 12.7104C136.099 11.8057 134.815 11.3512 133.018 11.3512C131.743 11.3512 130.708 11.6163 129.917 12.1423C129.122 12.6683 128.537 13.3373 128.163 14.141C127.784 14.9447 127.599 15.8031 127.599 16.7078V28.4014H123.736L123.728 28.3972Z" fill="#023047"/>
<path d="M154.18 28.8141C152.383 28.8141 150.725 28.4439 149.202 27.6991C147.678 26.9585 146.45 25.8308 145.511 24.3244C144.573 22.8138 144.106 20.9034 144.106 18.5891V17.8359C144.106 15.6226 144.556 13.788 145.452 12.3278C146.349 10.8677 147.535 9.7821 149.004 9.06256C150.472 8.34723 152.067 7.98535 153.784 7.98535C156.881 7.98535 159.267 8.80167 160.946 10.4385C162.625 12.0754 163.462 14.3855 163.462 17.3815V19.4938H148.044C148.07 20.9287 148.381 22.0858 148.983 22.9653C149.58 23.8447 150.35 24.4801 151.285 24.8714C152.223 25.2627 153.182 25.4563 154.171 25.4563C155.682 25.4563 156.818 25.2164 157.588 24.741C158.354 24.2655 158.896 23.6217 159.208 22.818H163.071C162.654 24.7788 161.632 26.2684 160.007 27.2867C158.379 28.305 156.435 28.8141 154.171 28.8141H154.18ZM153.986 11.3474C152.972 11.3474 152.017 11.5241 151.116 11.8734C150.22 12.2269 149.488 12.7865 148.932 13.5523C148.373 14.3181 148.078 15.3196 148.053 16.5525H159.683C159.658 15.2439 159.385 14.2129 158.863 13.4597C158.341 12.7065 157.659 12.1637 156.814 11.8355C155.968 11.5073 155.025 11.3432 153.986 11.3432V11.3474Z" fill="#023047"/>
<path d="M175.451 28.8141C173.629 28.8141 171.988 28.4354 170.532 27.6822C169.076 26.929 167.932 25.7971 167.098 24.2865C166.265 22.7759 165.849 20.8782 165.849 18.5891V17.8359C165.849 15.6731 166.299 13.8637 167.195 12.4036C168.091 10.9435 169.27 9.84522 170.726 9.10043C172.181 8.35985 173.755 7.98535 175.447 7.98535C177.138 7.98535 178.632 8.2799 179.857 8.87321C181.081 9.4623 182.053 10.2618 182.785 11.2675C183.513 12.2731 183.997 13.3924 184.228 14.6253H180.248C179.911 13.6954 179.389 12.9169 178.687 12.2858C177.984 11.6588 176.903 11.3432 175.447 11.3432C174.458 11.3432 173.532 11.562 172.674 12.0038C171.815 12.4457 171.125 13.14 170.603 14.0993C170.082 15.0545 169.821 16.3 169.821 17.8359V18.5891C169.821 20.2259 170.082 21.5514 170.603 22.5697C171.125 23.588 171.815 24.3244 172.674 24.7788C173.532 25.2333 174.454 25.4563 175.447 25.4563C176.696 25.4563 177.723 25.1744 178.531 24.6063C179.339 24.0382 179.911 23.2303 180.248 22.1742H184.228C183.942 23.5333 183.391 24.7073 182.571 25.7003C181.75 26.6934 180.736 27.4592 179.524 28.002C178.312 28.5406 176.953 28.8141 175.447 28.8141H175.451Z" fill="#023047"/>
<path d="M186.468 28.3972V1.16406H190.331V17.3432L199.386 8.40154H204.032L195.561 16.7751L204.81 28.3972H200.047L192.902 19.2662L190.327 21.6815V28.3972H186.464H186.468Z" fill="#023047"/>
</svg>
