<?xml version="1.0" encoding="UTF-8"?>
<svg version="1.1" xmlns="http://www.w3.org/2000/svg" width="400" height="400">
<path d="M0 0 C132 0 264 0 400 0 C400 132 400 264 400 400 C268 400 136 400 0 400 C0 268 0 136 0 0 Z " fill="#101012" transform="translate(0,0)"/>
<path d="M0 0 C0.69689941 0.17660156 1.39379883 0.35320312 2.11181641 0.53515625 C10.23205732 2.60988069 17.62866561 5.56400863 25.0625 9.4375 C25.75303467 9.79674561 26.44356934 10.15599121 27.1550293 10.52612305 C30.58130094 12.39716022 33.86109783 14.45731361 36.99609375 16.78515625 C37.57415771 17.20804932 38.15222168 17.63094238 38.74780273 18.06665039 C40.38690999 20.59737575 40.65680981 22.86403603 40.53083801 25.85133362 C39.46752151 30.15530652 36.20166812 32.78696473 33.0703125 35.74609375 C32.36478241 36.44267593 31.65925232 37.13925812 30.93234253 37.85694885 C28.68133931 40.06991566 26.40381173 42.25321783 24.125 44.4375 C22.59849233 45.9324415 21.07373119 47.42916865 19.55078125 48.92773438 C16.76558292 51.65449861 13.97663664 54.37687622 11.16455078 57.07592773 C10.60051544 57.61805405 10.0364801 58.16018036 9.45535278 58.71873474 C7.29769172 60.61829902 6.13298099 60.99007325 3.2265625 61.20703125 C-0.26991117 60.98268124 -2.46483086 60.16311617 -5.625 58.6875 C-23.75317873 50.87707294 -42.76777487 50.79328179 -61.19140625 57.796875 C-68.03323566 60.72772821 -74.28975753 64.21076438 -80 69 C-80.66 69 -81.32 69 -82 69 C-82.495 70.485 -82.495 70.485 -83 72 C-84.9375 74.1875 -84.9375 74.1875 -87 76 C-87.66 76 -88.32 76 -89 76 C-89.37511719 76.78503906 -89.37511719 76.78503906 -89.7578125 77.5859375 C-91.02648014 80.05146141 -92.41083382 82.43296029 -93.81787109 84.8215332 C-101.10810206 97.25870091 -105.40458702 108.75074009 -105.3125 123.3125 C-105.30758545 124.23603271 -105.3026709 125.15956543 -105.29760742 126.11108398 C-105.11407965 136.8262825 -102.5101425 145.52695146 -97.98828125 155.2109375 C-96.78380309 158.61013672 -96.33816575 160.41987649 -97 164 C-99.02646302 166.96653417 -101.47967968 169.4499603 -104 172 C-104.70592285 172.73605469 -105.4118457 173.47210938 -106.13916016 174.23046875 C-108.34158273 176.50988539 -110.57224375 178.75780077 -112.8125 181 C-113.57498047 181.77472656 -114.33746094 182.54945313 -115.12304688 183.34765625 C-115.85201172 184.07855469 -116.58097656 184.80945313 -117.33203125 185.5625 C-117.98921143 186.22378906 -118.6463916 186.88507813 -119.32348633 187.56640625 C-121 189 -121 189 -123 189 C-123.268125 189.598125 -123.53625 190.19625 -123.8125 190.8125 C-124.99917406 192.99847854 -126.09599113 194.41332594 -128 196 C-128.66 196 -129.32 196 -130 196 C-130 196.66 -130 197.32 -130 198 C-132.98800486 198.36062128 -135.09209676 198.54457097 -138 198 C-153.60199683 184.99833598 -159.83239534 156.01928054 -162 137 C-162.28075856 132.20415149 -162.3344735 127.4282798 -162.3125 122.625 C-162.30758545 121.34858643 -162.3026709 120.07217285 -162.29760742 118.75708008 C-162.18579809 109.77735718 -161.52793998 101.65411711 -159 93 C-158.48953125 91.09541016 -158.48953125 91.09541016 -157.96875 89.15234375 C-148.83854397 56.54503268 -126.95117536 29.31142873 -98 12 C-89.4567391 7.20173018 -80.49985644 3.63045717 -71.1875 0.625 C-70.44781982 0.38612061 -69.70813965 0.14724121 -68.94604492 -0.09887695 C-46.92504151 -6.80345353 -22.07060038 -6.01970767 0 0 Z " fill="#83838E" transform="translate(234,76)"/>
<path d="M0 0 C2.45266907 0.88429565 4.75661902 1.81135585 7.125 2.875 C23.95348829 9.94140117 41.85671787 9.97692757 59 4 C60.69973652 3.27816067 62.38958688 2.53199612 64.0625 1.75 C67.63217365 0.09170011 70.02057367 -0.9313551 74 0 C81.12585675 5.21605142 87.40829728 12.02320555 93.71191406 18.19702148 C94.91045839 19.36365481 96.11697723 20.52214762 97.33105469 21.67260742 C99.10488976 23.35517721 100.85106701 25.06259966 102.59375 26.77734375 C103.13737183 27.28281235 103.68099365 27.78828094 104.24108887 28.30906677 C107.10527887 31.1884453 108.34225148 33.26639476 108.42358398 37.26196289 C108 41 108 41 106.62890625 43.03125 C79.62700156 62.22353008 44.10845554 68.84425311 11.66796875 63.75 C-5.52502057 60.23450059 -22.3727031 53.80004635 -37 44 C-37.60199219 43.60296875 -38.20398438 43.2059375 -38.82421875 42.796875 C-40.42816312 40.34566433 -40.51964306 38.08051514 -40.46656799 35.19851685 C-39.54085364 30.83645464 -36.20912744 28.22008432 -33.0703125 25.25390625 C-32.36478241 24.55732407 -31.65925232 23.86074188 -30.93234253 23.14305115 C-28.68133931 20.93008434 -26.40381173 18.74678217 -24.125 16.5625 C-22.59849233 15.0675585 -21.07373119 13.57083135 -19.55078125 12.07226562 C-16.76558292 9.34550139 -13.97663664 6.62312378 -11.16455078 3.92407227 C-10.60051544 3.38194595 -10.0364801 2.83981964 -9.45535278 2.28126526 C-6.40413747 -0.40496741 -3.96922707 -0.28952009 0 0 Z " fill="#ECECEC" transform="translate(166,264)"/>
<path d="M0 0 C10.02765738 6.93238559 15.74323893 15.43454811 19.0625 27.1171875 C20.32280644 40.17454842 17.87226536 50.32829989 10.0390625 60.828125 C2.68343857 69.34669343 -7.24267469 74.42266996 -18.48046875 75.3203125 C-30.25453276 75.52901083 -40.32446133 72.05849895 -49.16796875 64.11328125 C-58.15952692 54.68311049 -61.28045815 44.4626491 -61.1484375 31.72265625 C-60.46035308 19.96150952 -54.55541346 10.9539161 -46.22265625 2.91015625 C-33.06778533 -7.41135786 -14.20349744 -8.18673811 0 0 Z " fill="#FCFCFC" transform="translate(220.9375,165.8828125)"/>
<path d="M0 0 C12.52039878 -0.62951726 23.86022197 1.00166594 36 4 C36.71720215 4.17660156 37.4344043 4.35320312 38.17333984 4.53515625 C46.26586576 6.60967037 53.65377991 9.57709475 61.0625 13.4375 C62.098302 13.97636841 62.098302 13.97636841 63.1550293 14.52612305 C67.85913493 17.0949668 72.32985242 20.05078095 76 24 C76 24.66 76 25.32 76 26 C75.34 26 74.68 26 74 26 C74 25.34 74 24.68 74 24 C71.69 23.67 69.38 23.34 67 23 C66.505 21.515 66.505 21.515 66 20 C62.49705129 18.28432339 62.49705129 18.28432339 59 17 C59 16.34 59 15.68 59 15 C56.36 15 53.72 15 51 15 C50.505 13.515 50.505 13.515 50 12 C48.15113039 11.06734664 48.15113039 11.06734664 45.8125 10.5 C44.92433594 10.25636719 44.03617188 10.01273438 43.12109375 9.76171875 C37.44183013 8.37566568 31.7284615 7.16385169 26 6 C26 5.34 26 4.68 26 4 C23.69 4 21.38 4 19 4 C18.67 4.99 18.34 5.98 18 7 C17.01 6.67 16.02 6.34 15 6 C15.99 5.67 16.98 5.34 18 5 C18 4.34 18 3.68 18 3 C12.06 3 6.12 3 0 3 C0 2.01 0 1.02 0 0 Z " fill="#A0A0A9" transform="translate(198,72)"/>
<path d="M0 0 C-8.6 6 -8.6 6 -14 6 C-14 6.66 -14 7.32 -14 8 C-14.76183594 8.35191406 -15.52367187 8.70382813 -16.30859375 9.06640625 C-22.36337889 11.96151575 -27.71124981 14.99358561 -32.890625 19.265625 C-35.64947937 21.53401637 -38.55241092 23.58067121 -41.46875 25.640625 C-43.28622362 27.0261483 -43.28622362 27.0261483 -44 30 C-45.65002828 31.35386936 -47.3174387 32.68678142 -49 34 C-49.66 34.99 -50.32 35.98 -51 37 C-51.66 37 -52.32 37 -53 37 C-54.10836423 38.88316159 -54.10836423 38.88316159 -55 41 C-54.67 41.66 -54.34 42.32 -54 43 C-54.66 43 -55.32 43 -56 43 C-56.33 43.66 -56.66 44.32 -57 45 C-57 44.34 -57 43.68 -57 43 C-57.66 43 -58.32 43 -59 43 C-59.33 43.66 -59.66 44.32 -60 45 C-59.77092859 39.34957196 -56.01618159 36.22320659 -52.3125 32.375 C-51.64202637 31.67004395 -50.97155273 30.96508789 -50.28076172 30.23876953 C-44.01253789 23.77939649 -37.285227 18.26104628 -30 13 C-29.24847656 12.43152344 -28.49695313 11.86304687 -27.72265625 11.27734375 C-22.8615061 7.77843529 -17.56084874 5.17273461 -12.1875 2.5625 C-11.4452417 2.19552002 -10.7029834 1.82854004 -9.93823242 1.45043945 C-9.23029541 1.1174585 -8.5223584 0.78447754 -7.79296875 0.44140625 C-7.1589917 0.13920166 -6.52501465 -0.16300293 -5.87182617 -0.47436523 C-3.58193051 -1.11739971 -2.22677503 -0.74534209 0 0 Z " fill="#9C9CA4" transform="translate(157,81)"/>
<path d="M0 0 C0.66 1.32 1.32 2.64 2 4 C1.34 4.66 0.68 5.32 0 6 C0 5.34 0 4.68 0 4 C-1.65 4.33 -3.3 4.66 -5 5 C-5.33 5.99 -5.66 6.98 -6 8 C-7.1446875 8.061875 -7.1446875 8.061875 -8.3125 8.125 C-11.29601527 8.74968605 -11.29601527 8.74968605 -12.5 11.875 C-12.995 12.90625 -13.49 13.9375 -14 15 C-15.64333504 16.03789581 -17.31243867 17.03567924 -19 18 C-20.81246971 19.9112419 -22.37949911 21.91649886 -24 24 C-24.99 23.67 -25.98 23.34 -27 23 C-22.64199371 17.78934031 -18.06625699 12.91287041 -13.25 8.125 C-12.57839844 7.44953125 -11.90679687 6.7740625 -11.21484375 6.078125 C-10.57160156 5.43617188 -9.92835938 4.79421875 -9.265625 4.1328125 C-8.68586914 3.55418457 -8.10611328 2.97555664 -7.50878906 2.37939453 C-4.80824879 -0.08954601 -3.87024125 0 0 0 Z " fill="#F3F3F4" transform="translate(164,264)"/>
<path d="M0 0 C0.99 0.66 1.98 1.32 3 2 C2.67 2.66 2.34 3.32 2 4 C2.66 4.66 3.32 5.32 4 6 C2.27278316 7.27348212 0.54313762 8.54367057 -1.1875 9.8125 C-2.15042969 10.52019531 -3.11335938 11.22789063 -4.10546875 11.95703125 C-6.6779333 13.77268437 -9.27720484 15.42207301 -12 17 C-12.6875 14.6875 -12.6875 14.6875 -13 12 C-11.0072944 9.01094161 -8.25670527 8.25257895 -5 7 C-4.34 6.34 -3.68 5.68 -3 5 C-2.67 5 -2.34 5 -2 5 C-2 3.68 -2 2.36 -2 1 C-1.34 0.67 -0.68 0.34 0 0 Z " fill="#1C1C20" transform="translate(125,88)"/>
<path d="M0 0 C5.13411529 1.49677969 9.5048602 3.75206349 14.125 6.375 C14.82753906 6.76171875 15.53007812 7.1484375 16.25390625 7.546875 C19.98641009 9.64949531 23.24119878 11.64083789 26 15 C26 15.66 26 16.32 26 17 C25.34 17 24.68 17 24 17 C24 16.34 24 15.68 24 15 C21.69 14.67 19.38 14.34 17 14 C16.67 13.01 16.34 12.02 16 11 C12.49705129 9.28432339 12.49705129 9.28432339 9 8 C9 7.34 9 6.68 9 6 C6.36 6 3.72 6 1 6 C0.67 4.02 0.34 2.04 0 0 Z " fill="#9C9CA6" transform="translate(248,81)"/>
<path d="M0 0 C0.66 0.33 1.32 0.66 2 1 C0.00429734 5.62162722 -1.98509918 8.01456093 -6 11 C-6.99 12.485 -6.99 12.485 -8 14 C-8.66 14 -9.32 14 -10 14 C-11.10836423 15.88316159 -11.10836423 15.88316159 -12 18 C-11.67 18.66 -11.34 19.32 -11 20 C-11.66 20 -12.32 20 -13 20 C-13.33 20.66 -13.66 21.32 -14 22 C-14 21.34 -14 20.68 -14 20 C-14.66 20 -15.32 20 -16 20 C-16.33 20.66 -16.66 21.32 -17 22 C-16.47835884 17.96165719 -15.47541378 15.96177841 -12.65625 13.046875 C-11.98722656 12.345625 -11.31820312 11.644375 -10.62890625 10.921875 C-9.92636719 10.20515625 -9.22382812 9.4884375 -8.5 8.75 C-7.79746094 8.0178125 -7.09492187 7.285625 -6.37109375 6.53125 C-4.26343516 4.33831043 -2.15077304 2.15077304 0 0 Z " fill="#909098" transform="translate(114,104)"/>
<path d="M0 0 C-0.33 0.99 -0.66 1.98 -1 3 C-6.5648459 5.70722233 -12.92218903 5.62628347 -19 6 C-15.88926453 2.31209192 -13.68448183 1.38528381 -8.9375 0.75 C-7.37322266 0.52570313 -7.37322266 0.52570313 -5.77734375 0.296875 C-3 0 -3 0 0 0 Z " fill="#A0A0AA" transform="translate(177,75)"/>
<path d="M0 0 C0.33 0.66 0.66 1.32 1 2 C0.04578192 3.14926266 -0.91352045 4.29430541 -1.875 5.4375 C-2.40867188 6.07558594 -2.94234375 6.71367187 -3.4921875 7.37109375 C-5 9 -5 9 -7 10 C-7.99 11.485 -7.99 11.485 -9 13 C-10.99665598 14.67067133 -12.99651034 16.33752986 -15 18 C-15.33 18.66 -15.66 19.32 -16 20 C-16.99 19.67 -17.98 19.34 -19 19 C-12.73 12.73 -6.46 6.46 0 0 Z " fill="#08070B" transform="translate(135,242)"/>
<path d="M0 0 C-1.03443859 2.82119614 -1.73220706 3.84496198 -4.375 5.375 C-7 6 -7 6 -9.3125 5.125 C-9.869375 4.75375 -10.42625 4.3825 -11 4 C-11 3.34 -11 2.68 -11 2 C-10.01 2 -9.02 2 -8 2 C-7.67 1.34 -7.34 0.68 -7 0 C-2.52459016 -1.26229508 -2.52459016 -1.26229508 0 0 Z " fill="#1F1F21" transform="translate(248,73)"/>
<path d="M0 0 C2.125 0.375 2.125 0.375 4 1 C4 4 4 4 2.6875 5.38671875 C1.125 6.59114583 -0.4375 7.79557292 -2 9 C-2.125 5.625 -2.125 5.625 -2 2 C-1.34 1.34 -0.68 0.68 0 0 Z " fill="#6A6970" transform="translate(131,239)"/>
<path d="M0 0 C0.85464844 -0.01417969 1.70929688 -0.02835937 2.58984375 -0.04296875 C5.0625 0.1875 5.0625 0.1875 9.0625 2.1875 C0.6475 2.6825 0.6475 2.6825 -7.9375 3.1875 C-7.9375 2.5275 -7.9375 1.8675 -7.9375 1.1875 C-5.02663331 0.2172111 -3.03526315 0.02282153 0 0 Z " fill="#A5A5AE" transform="translate(186.9375,72.8125)"/>
<path d="M0 0 C4.21912747 0.4794463 6.79663178 1.16625119 10 4 C7 6 7 6 5 5.75 C3 5 3 5 0 3 C0 2.01 0 1.02 0 0 Z " fill="#F3F3F5" transform="translate(167,266)"/>
<path d="M0 0 C0.556875 0.391875 1.11375 0.78375 1.6875 1.1875 C1.6875 2.5075 1.6875 3.8275 1.6875 5.1875 C-2.1875 4.3125 -2.1875 4.3125 -3.3125 3.1875 C-3.9725 3.1875 -4.6325 3.1875 -5.3125 3.1875 C-5.6425 4.5075 -5.9725 5.8275 -6.3125 7.1875 C-7.3125 4.1875 -7.3125 4.1875 -7.3125 2.1875 C-3.09973404 -1.08909574 -3.09973404 -1.08909574 0 0 Z " fill="#0A0A0C" transform="translate(166.3125,137.8125)"/>
<path d="M0 0 C1.32 0.33 2.64 0.66 4 1 C1.69 3.64 -0.62 6.28 -3 9 C-3.66 8.67 -4.32 8.34 -5 8 C-4.46104623 4.2273236 -3.00464642 2.31787009 0 0 Z " fill="#1C1D21" transform="translate(102,112)"/>
<path d="M0 0 C0 0.99 0 1.98 0 3 C-0.7425 3.28875 -1.485 3.5775 -2.25 3.875 C-4.56739797 4.82302644 -6.77917115 5.84845911 -9 7 C-9 6.01 -9 5.02 -9 4 C-3.85714286 0 -3.85714286 0 0 0 Z " fill="#F6F6F6" transform="translate(237,264)"/>
<path d="M0 0 C0.99 0.33 1.98 0.66 3 1 C3.6875 3.0625 3.6875 3.0625 4 5 C2.68 5.99 1.36 6.98 0 8 C0 7.34 0 6.68 0 6 C-0.66 5.67 -1.32 5.34 -2 5 C-1.34 3.35 -0.68 1.7 0 0 Z " fill="#19181D" transform="translate(106,104)"/>
<path d="M0 0 C1.32 1.32 2.64 2.64 4 4 C-0.625 7 -0.625 7 -4 7 C-3.67 5.35 -3.34 3.7 -3 2 C-2.01 2 -1.02 2 0 2 C0 1.34 0 0.68 0 0 Z " fill="#1C1C20" transform="translate(140,81)"/>
<path d="M0 0 C1.2065625 0.0309375 1.2065625 0.0309375 2.4375 0.0625 C-1.3125 6.9375 -1.3125 6.9375 -3.5625 8.0625 C-3.60491723 5.72955225 -3.60342937 3.39547433 -3.5625 1.0625 C-2.5625 0.0625 -2.5625 0.0625 0 0 Z " fill="#201F24" transform="translate(277.5625,94.9375)"/>
<path d="M0 0 C1.9375 0.8125 1.9375 0.8125 4 2 C4.33 2.99 4.66 3.98 5 5 C4.01 5.66 3.02 6.32 2 7 C1.566875 6.0409375 1.566875 6.0409375 1.125 5.0625 C0.17176549 2.84793921 0.17176549 2.84793921 -2 2 C-1.34 1.34 -0.68 0.68 0 0 Z " fill="#080808" transform="translate(171,230)"/>
<path d="M0 0 C3.25511789 0.56122722 4.99840071 1.33120095 7 4 C7.6875 6.6875 7.6875 6.6875 8 9 C6.68 8.67 5.36 8.34 4 8 C3.855625 7.401875 3.71125 6.80375 3.5625 6.1875 C3.1127561 4.43849596 2.57107659 2.71322977 2 1 C1.34 0.67 0.68 0.34 0 0 Z " fill="#F4F4F5" transform="translate(253,279)"/>
<path d="M0 0 C2.97 0.495 2.97 0.495 6 1 C5.67 1.99 5.34 2.98 5 4 C5.33 4.33 5.66 4.66 6 5 C5.01 5.495 5.01 5.495 4 6 C3.67 6.99 3.34 7.98 3 9 C2.01 6.03 1.02 3.06 0 0 Z " fill="#66676D" transform="translate(81,247)"/>
<path d="M0 0 C0 3.19131 -0.13209062 4.45285085 -2 7 C-5.125 7.75 -5.125 7.75 -8 8 C-3.375 2.25 -3.375 2.25 0 0 Z " fill="#090909" transform="translate(234,224)"/>
<path d="M0 0 C1.65 0.99 3.3 1.98 5 3 C3.35 4.65 1.7 6.3 0 8 C0 5.36 0 2.72 0 0 Z " fill="#65666B" transform="translate(105,264)"/>
<path d="M0 0 C-2.79908133 2.79908133 -5.13081763 2.72362983 -9 3 C-9.66 2.34 -10.32 1.68 -11 1 C-6.87831311 -0.62950412 -4.29299643 -1.26264601 0 0 Z " fill="#DEDEDE" transform="translate(239,322)"/>
<path d="M0 0 C1.32 0.33 2.64 0.66 4 1 C4.33 2.32 4.66 3.64 5 5 C4.01 5.33 3.02 5.66 2 6 C1.34 5.34 0.68 4.68 0 4 C0 2.68 0 1.36 0 0 Z " fill="#F7F7F8" transform="translate(240,266)"/>
<path d="M0 0 C2.31 0.66 4.62 1.32 7 2 C5.35 3.65 3.7 5.3 2 7 C1.34 4.69 0.68 2.38 0 0 Z " fill="#67686D" transform="translate(120,248)"/>
<path d="M0 0 C0.99 0.99 1.98 1.98 3 3 C2.01 4.98 1.02 6.96 0 9 C-0.66 8.67 -1.32 8.34 -2 8 C-1.47731534 5.23723823 -0.89130413 2.6739124 0 0 Z " fill="#76767F" transform="translate(135,161)"/>
<path d="M0 0 C0.66 0 1.32 0 2 0 C2.66 1.32 3.32 2.64 4 4 C3.34 4.66 2.68 5.32 2 6 C2 5.34 2 4.68 2 4 C0.35 4.33 -1.3 4.66 -3 5 C-1.625 2.5 -1.625 2.5 0 0 Z " fill="#F9F9FA" transform="translate(162,264)"/>
<path d="M0 0 C0.33 0.66 0.66 1.32 1 2 C1.66 2 2.32 2 3 2 C3 1.34 3 0.68 3 0 C3.99 0.33 4.98 0.66 6 1 C4.35 2.32 2.7 3.64 1 5 C0.01 4.34 -0.98 3.68 -2 3 C-2 2.34 -2 1.68 -2 1 C-1.34 0.67 -0.68 0.34 0 0 Z " fill="#66656B" transform="translate(115,256)"/>
<path d="M0 0 C2.62187494 1.04874998 3.79371361 1.64931313 5.25 4.125 C5.4975 4.74375 5.745 5.3625 6 6 C5.01 6.33 4.02 6.66 3 7 C2.67 6.34 2.34 5.68 2 5 C2.33 4.34 2.66 3.68 3 3 C2.01 2.67 1.02 2.34 0 2 C0 1.34 0 0.68 0 0 Z " fill="#F4F4F4" transform="translate(264,289)"/>
<path d="M0 0 C2.475 0.495 2.475 0.495 5 1 C5 2.32 5 3.64 5 5 C4.01 5.33 3.02 5.66 2 6 C1.34 4.02 0.68 2.04 0 0 Z " fill="#67676F" transform="translate(88,261)"/>
<path d="M0 0 C0.33 0.66 0.66 1.32 1 2 C-0.98 4.97 -0.98 4.97 -3 8 C-3.75 6.25 -3.75 6.25 -4 4 C-2.0625 1.75 -2.0625 1.75 0 0 Z " fill="#8E8E98" transform="translate(95,128)"/>
<path d="M0 0 C0.66 0.33 1.32 0.66 2 1 C0.1875 4 0.1875 4 -2 7 C-2.99 7 -3.98 7 -5 7 C-3.47793991 4.37098712 -2.15634036 2.15634036 0 0 Z " fill="#0A090D" transform="translate(262,115)"/>
<path d="M0 0 C1.98 0.66 3.96 1.32 6 2 C5.01 2.495 5.01 2.495 4 3 C4 3.99 4 4.98 4 6 C3.01 6 2.02 6 1 6 C0.67 4.02 0.34 2.04 0 0 Z " fill="#92929C" transform="translate(248,81)"/>
<path d="M0 0 C0.66 0.33 1.32 0.66 2 1 C1.67 2.98 1.34 4.96 1 7 C0.67 6.34 0.34 5.68 0 5 C-0.99 5.33 -1.98 5.66 -3 6 C-1.125 1.125 -1.125 1.125 0 0 Z " fill="#17171A" transform="translate(76,158)"/>
</svg>
