<svg width="208" height="208" viewBox="0 0 208 208" fill="none" xmlns="http://www.w3.org/2000/svg">
<path d="M119.748 148.903C137.915 146.885 155.041 137.205 164.471 121.049C160.006 161.009 116.309 186.267 80.6422 170.76C77.3556 169.334 74.5266 166.964 72.5852 163.916C64.5698 151.33 61.9349 135.315 65.7208 120.781C76.5374 139.449 98.5312 150.892 119.748 148.903Z" fill="#F3B01C"/>
<path d="M65.0576 109.055C57.6939 126.072 57.375 145.996 66.4027 162.392C34.6323 138.489 34.979 87.3395 66.0144 63.6766C68.885 61.4895 72.2964 60.1914 75.8742 59.9938C90.5876 59.2178 105.537 64.9042 116.021 75.501C94.7201 75.7127 73.9743 89.3573 65.0576 109.055Z" fill="#8D2676"/>
<path d="M126.293 80.737C115.546 65.7519 98.7249 55.5502 80.295 55.2398C115.921 39.0694 159.742 65.2863 164.512 104.047C164.956 107.645 164.374 111.314 162.779 114.559C156.122 128.077 143.78 138.561 129.358 142.441C139.925 122.842 138.622 98.897 126.293 80.737Z" fill="#EE342F"/>
</svg>
