<svg class="mitek-bug" xmlns="http://www.w3.org/2000/svg" viewBox="0 0 62 76">
    <path style="fill:#ff374b;"
        d="M62,9.8c0-1.1-.4-1.5-1.3-1.7C51.1,5.4,41.6,2.8,32.1.1c-.7-.2-1.6-.2-2.3,0C20.3,2.8,10.9,5.5,1.4,8.1c-1,.3-1.4.7-1.4,1.8,0,7.1,0,14.2,0,21.3s0,13.4,0,20.1c0,1.1,0,2.1.2,3.1,1.6,7.3,6.2,12,12.9,14.8,4.3,1.8,8.6,3.4,12.8,5.4,3.5,1.7,6.5,1.8,10,0,4.9-2.5,10.2-4.2,15.1-6.7,6.6-3.4,10.7-8.8,10.8-16.4.2-13.9,0-27.9,0-41.8h0ZM55.8,41.7c0,0,0,.1,0,.2v2.7c0,4.7-3.7,8.4-8.3,8.4s-8.4-3.7-8.4-8.4v-4c0,0,0-.1,0-.2v-14.2c0-1.6-1.3-2.9-2.8-2.9s-2.8,1.3-2.8,2.9v18.4c0,4.7-3.8,8.4-8.4,8.4s-8.4-3.7-8.4-8.4v-18.4c0-1.6-1.3-2.9-2.8-2.9s-2.8,1.3-2.8,2.9v24c0,1.5-1.3,2.8-2.8,2.8s-2.8-1.3-2.8-2.8v-23.9c0-4.7,3.8-8.4,8.4-8.4s8.4,3.7,8.4,8.4v18.4c0,1.6,1.3,2.9,2.8,2.9s2.8-1.3,2.8-2.9v-18.4c0-4.7,3.8-8.4,8.4-8.4s8.4,3.7,8.4,8.4h0v18.4c0,1.6,1.3,2.9,2.8,2.9s2.8-1.3,2.8-2.9v-13.2c0-1.5,1.2-2.7,2.7-2.7s2.7,1.2,2.7,2.7v10.3h0ZM53,24.6c-1.9,0-3.4-1.5-3.4-3.4s1.5-3.4,3.4-3.4,3.4,1.5,3.4,3.4-1.5,3.4-3.4,3.4Z">
    </path>
</svg>