<svg width="28" height="28" viewBox="0 0 28 28" fill="none" xmlns="http://www.w3.org/2000/svg">
  <path d="M14.5914 19.3141L16.9934 16.8197L10.852 10.4421C9.33118 8.86284 9.33118 6.28951 10.852 4.71021C12.3728 3.13091 14.8508 3.13091 16.3716 4.71021L22.513 11.0878L24.915 8.59343L18.7736 2.21585C15.9288 -0.738371 11.2948 -0.738371 8.45001 2.21585C5.60521 5.17006 5.60521 9.98228 8.45001 12.9365L14.5914 19.3141Z" fill="#DB6669"/>
  <path d="M14.8201 6.33603C14.1581 5.64857 13.0801 5.64857 12.4181 6.33603C11.7561 7.02349 11.7561 8.14293 12.4181 8.83039L20.1116 16.8198L14.592 22.5517L6.89848 14.5623C6.23648 13.8749 5.1585 13.8749 4.4965 14.5623C3.8345 15.2498 3.8345 16.3692 4.4965 17.0567L14.592 27.5404L24.9156 16.8198L14.8201 6.33603Z" fill="#DB6669"/>
</svg>
