<svg width="100" height="100" viewBox="0 0 100 100" xmlns="http://www.w3.org/2000/svg">
<!--Background-->
  <circle cx="50" cy="50" r="50" fill="black" />
<!--Stars (sparkles)-->
<!--Top-right small sparkle-->
  <g transform="translate(22, 30) scale(0.5)">
    <path fill="white" d="M10 0 L12 8 L20 10 L12 12 L10 20 L8 12 L0 10 L8 8 Z"/>
  </g>
<!--Top-left sparkle-->
  <g transform="translate(10, 40) scale(0.7)">
    <path fill="white" d="M10 0 L12 8 L20 10 L12 12 L10 20 L8 12 L0 10 L8 8 Z"/>
  </g>
<!--Bottom-left sparkle-->
  <g transform="translate(20, 50) scale(1)">
    <path fill="white" d="M10 0 L12 8 L20 10 L12 12 L10 20 L8 12 L0 10 L8 8 Z"/>
  </g>
<!--AI Text-->
  <text x="40" y="70" font-family="Arial, sans-serif" font-size="46" fill="white" font-weight="bold">
    AI
  </text>
</svg>
