<?xml version="1.0" standalone="no"?>
<!DOCTYPE svg>

<svg version="1.0" xmlns="http://www.w3.org/2000/svg" viewBox="60 60 520 540" preserveAspectRatio="xMidYMid meet">
    <g transform="translate(0.000000,640.000000) scale(0.100000,-0.100000)" fill="currentColor" stroke="none">
        <path d="M3165 5581 c-19 -8 -159 -23 -197 -23 -10 1 -25 -9 -33 -21 -14 -21
-14 -22 7 -29 13 -3 46 -7 73 -8 107 -3 86 -17 -37 -23 -224 -12 -456 -56
-672 -128 -136 -45 -419 -188 -553 -278 -415 -281 -736 -672 -912 -1114 -24
-59 -47 -110 -52 -113 -5 -3 -9 -14 -9 -25 0 -17 -38 -148 -45 -157 -6 -7 -45
24 -45 36 0 7 -7 15 -16 19 -23 8 -13 59 37 194 206 562 575 1008 1085 1314
221 133 459 232 709 294 75 19 323 56 425 64 92 7 255 6 235 -2z m175 -336
c63 -9 120 -18 125 -20 11 -4 -158 3 -220 10 -38 4 -40 3 -41 -25 -1 -16 3
-27 7 -24 5 3 9 -1 9 -9 0 -23 -23 -27 -158 -27 -164 0 -278 -14 -432 -51
-316 -76 -574 -197 -825 -387 -127 -96 -330 -310 -435 -458 -155 -219 -291
-529 -341 -779 -26 -131 -36 -154 -38 -95 -4 77 -7 94 -19 123 -29 68 -26 87
41 283 80 231 224 484 388 680 73 87 283 292 339 330 19 13 78 54 130 90 107
74 370 207 503 253 123 43 386 101 517 114 99 10 347 5 450 -8z m-82 -135 c10
-17 20 -20 50 -16 20 3 46 7 57 8 37 5 27 -17 -14 -29 -82 -24 -228 -101 -301
-160 -154 -123 -278 -296 -359 -501 -104 -265 -147 -502 -171 -947 -24 -453
-58 -605 -179 -800 -59 -95 -81 -113 -107 -84 -20 22 -44 25 -62 7 -29 -29 -8
8 28 49 137 156 193 345 210 715 19 404 39 572 96 808 111 455 327 771 638
934 79 41 96 44 114 16z m183 -66 c8 -10 21 -13 36 -9 13 3 23 3 23 0 0 -10
-31 -67 -59 -109 -25 -38 -26 -38 -32 -15 -4 18 -11 23 -29 21 -26 -3 -60 -29
-60 -46 0 -6 -13 -37 -29 -68 -16 -32 -25 -58 -20 -58 5 0 12 7 15 15 4 9 13
13 23 10 10 -3 26 8 45 31 15 19 30 34 32 31 2 -2 -14 -44 -37 -93 -160 -346
-170 -619 -32 -886 39 -76 65 -111 143 -189 98 -99 129 -121 317 -233 109 -64
281 -180 353 -238 256 -204 360 -303 470 -449 123 -163 195 -310 247 -507 23
-84 26 -117 27 -254 0 -87 3 -155 7 -150 4 4 41 73 82 154 162 319 240 651
240 1018 0 179 1 191 13 150 8 -25 15 -77 16 -116 2 -40 6 -70 11 -67 4 2 7
12 7 21 0 9 7 30 15 46 9 16 15 55 15 92 0 100 17 84 25 -23 19 -242 -37 -638
-122 -873 -19 -52 -38 -106 -43 -120 -31 -95 -168 -342 -260 -470 -25 -34 -52
-73 -61 -87 -9 -13 -67 -77 -128 -143 -260 -276 -581 -481 -936 -598 -133 -43
-150 -46 -179 -27 -14 9 -30 14 -37 10 -6 -4 -24 2 -40 14 -26 19 -34 20 -96
11 -37 -6 -135 -12 -218 -14 l-150 -5 128 9 c551 37 988 227 1381 602 l110
105 -33 89 c-157 420 -421 691 -761 779 -49 13 -93 16 -175 13 -171 -7 -263
-43 -580 -227 -161 -93 -220 -123 -222 -113 -1 4 -4 19 -7 35 -4 15 -11 27
-17 27 -5 0 -56 -23 -113 -50 -97 -47 -216 -94 -222 -87 -2 1 32 18 74 36 140
62 390 196 517 277 95 60 274 143 377 175 304 92 628 -7 878 -268 127 -131
182 -211 270 -387 77 -155 80 -159 91 -130 55 144 52 429 -7 614 -28 86 -135
285 -198 370 -140 186 -474 472 -735 629 -367 220 -493 338 -592 556 -96 212
-103 472 -19 727 51 154 209 458 239 458 5 0 14 -7 22 -16z m-150 -1576 c182
-91 279 -247 279 -449 0 -244 -183 -453 -415 -474 -214 -20 -398 81 -492 273
l-38 76 0 131 c0 129 0 131 37 207 57 120 159 211 298 264 23 9 71 13 146 11
105 -2 114 -4 185 -39z m2260 -324 c5 -6 9 -40 10 -75 1 -53 17 -147 35 -208
6 -19 15 -8 25 31 10 41 2 -133 -12 -247 -32 -257 -136 -599 -255 -838 -178
-356 -482 -708 -809 -937 -147 -103 -331 -207 -480 -271 -98 -41 -123 -48 -90
-23 46 34 -23 63 -108 45 -23 -6 -43 -9 -44 -7 -2 2 36 18 84 36 235 88 494
237 693 396 228 183 471 469 599 707 163 302 236 502 297 822 22 119 27 176
32 380 3 132 7 231 10 220 2 -11 8 -25 13 -31z" />

    </g>
</svg>